
<svg width="25px" height="24px" viewBox="0 0 25 24" version="1.1" xmlns="http://www.w3.org/2000/svg" xmlns:xlink="http://www.w3.org/1999/xlink">
    <!-- Generator: Sketch 48.2 (47327) - http://www.bohemiancoding.com/sketch -->
    <desc>Created with Sketch.</desc>
    <defs></defs>
    <g id="Test-Copy" stroke="none" stroke-width="1" fill="none" fill-rule="evenodd">
        <g id="Group" transform="translate(0.500000, 0.500000)">
            <g id="blue">
                <path d="M4.03924006,0.949343777 C4.60124543,0.412029966 5.69804969,2.97424404 6.16995992,3.72427991 C6.99350649,5.03319299 7.74446256,5.84263264 8.30646307,5.86323732 C9.58471997,5.91010218 11.5166016,5.05145707 12.6715453,4.95360821 C13.8264889,4.85575935 15.3522854,4.15263097 15.6279043,4.15263097 C15.7661538,4.15263097 16.0690695,4.55438127 16.3242568,4.95360821 C16.5778197,5.35029395 16.7828622,5.7443798 17.167398,5.77316041 C17.5056594,5.79847761 18.2829731,4.63104334 19.2410461,3.48540901 C20.4682267,2.01798395 21.9553832,0.466246801 22.3565214,0.891831342 C22.7546005,1.31417032 21.2911907,2.67945419 19.894861,3.8811956 C18.7856238,4.83585282 17.6104882,5.68958767 17.6873985,6.17135631 C17.8611252,7.25958484 19.0116934,7.84974792 19.1263697,7.74824624 C19.2410461,7.64674457 19.0415229,7.17133434 19.2829748,6.98084383 C19.4439428,6.85385016 19.6854708,6.80651898 20.0075588,6.83885029 C19.8852729,6.30126446 19.9746347,5.9460345 20.2756443,5.77316041 C20.488865,5.65070468 20.8328599,5.84078922 21.0402166,6.17135631 C21.2719565,6.54079504 21.365007,7.07405665 21.1362114,7.30695488 C20.8910308,7.534129 20.68542,7.43029574 20.5595196,7.54462113 C20.4336191,7.65894653 20.6046063,7.83902263 20.6046063,7.95257083 C20.6046063,8.06611903 20.3535283,8.10598913 20.4076134,8.32801433 C20.4465556,8.48787659 20.4727439,8.60874673 20.5595196,8.85621553 C20.5932626,8.95244456 20.584776,9.1375588 20.6739676,9.24131569 C21.0402166,9.66737403 21.127879,10.015946 21.4566698,10.1229269 C21.7854606,10.2299078 22.4326172,10.5536873 22.1709999,11.0810919 C21.7854606,11.7762928 20.4632204,10.8301744 20.2756443,11.0060148 C20.0880682,11.1818552 20.2513317,11.9011492 20.1326603,12.7332143 C20.0139889,13.5652793 19.9134284,14.1393933 20.1326603,14.47281 C20.3518922,14.8062267 23.5431209,16.8383198 23.446213,17.0169969 C23.349305,17.1956741 21.0765524,16.3461221 20.6046063,16.1894396 C20.1326603,16.0327571 18.9473164,16.1894396 18.5796216,16.6355107 C18.2119267,17.0815818 17.8826984,17.3939754 18.0506798,18.0468192 C18.2186612,18.6996631 18.8180677,19.2985308 19.4513748,20.1371631 C20.0846819,20.9757954 22.3692675,22.3899407 21.7808949,22.9208038 C21.1925223,23.4516669 20.0075588,21.0657946 19.2829748,20.2933405 C18.5583908,19.5208863 17.1917106,18.413189 17.0599127,18.4175024 C16.9281149,18.4218159 16.4918958,19.4270011 16.1805119,19.537868 C15.8691279,19.6487349 15.6041624,19.4283223 15.0192903,19.4283223 C14.4344181,19.4283223 13.7906859,20.3768112 12.5469004,20.2933405 C11.3031149,20.2098697 11.2254591,19.8729556 10.7215148,19.537868 C10.2175705,19.2027803 8.778333,18.4175024 8.50701349,18.4175024 C8.23569399,18.4175024 7.77588525,18.8548301 7.51464844,19.2099694 C7.25341163,19.5651087 6.9320211,19.7119208 6.61070668,20.0026306 C6.28939225,20.2933405 6.06365412,21.3890689 5.80580357,21.3844446 C5.54795302,21.3798203 5.21708858,21.1708714 5.23767248,20.8723119 C5.25825639,20.5737524 5.84624848,19.656468 6.11140422,19.3523904 C6.37655996,19.0483128 7.61829089,18.0501612 7.51464844,17.658144 C7.41100599,17.2661268 7.01492746,16.7989937 6.67443689,16.3093608 C6.33394633,15.8197279 6.09766893,15.3218568 5.93139966,15.2643832 C5.76513038,15.2069096 5.33933644,14.902288 5.12706727,14.9268474 C4.91479809,14.9514067 4.74129972,15.4177238 4.2422636,15.4177238 C3.74322748,15.4177238 3.42031504,15.0228698 3.36457488,14.7710197 C3.30883472,14.5191697 3.34079495,14.4167354 3.2091112,14.4167354 C3.13512151,14.4167354 2.91048192,14.6766084 2.67381544,14.6860335 C2.48927289,14.6933827 2.29886367,14.5175416 2.29839692,14.2750139 C2.29788744,14.0102868 2.4613302,13.8906738 2.6286526,13.8926339 C2.81120955,13.8947724 3.00188949,14.0315863 3.07742746,14.0299642 C3.22219968,14.0268555 3.76240361,13.2598805 4.03924006,13.3084163 C4.3160765,13.3569522 4.72429231,13.7072729 4.90581879,13.698646 C5.08734527,13.6900191 5.35364245,13.5451888 5.35200639,13.3084163 C5.35037033,13.0716439 5.12706727,12.9004278 4.90581879,12.9004278 C4.68457031,12.9004278 3.96542715,13.0723045 3.96542715,12.1021707 C3.96542715,11.132037 4.83934913,11.2911677 5.23767248,11.0060148 C5.63599584,10.7208619 5.75173752,9.94071353 6.11140422,9.09357091 C6.47107092,8.24642828 7.19546469,7.69252136 7.1890346,7.30695488 C7.1826045,6.92138841 6.84116274,4.96437236 6.03941761,3.81260813 C5.23767248,2.6608439 3.45823073,1.50482661 4.03924006,0.949343777 Z" id="BigDrop" fill="#2681B7"></path>
                <path d="M0.00108795391,9.14137282 C0.00108795391,8.54512895 0.571843968,8.31365868 1.08938155,8.31866286 C1.60691912,8.32366705 2.10683884,8.89142955 2.42776531,9.14137282 C2.74869177,9.39131609 4.84386152,9.46307829 4.82634791,9.79250298 C4.8088343,10.1219277 2.88348893,9.4704781 2.41377251,9.79250298 C1.9440561,10.1145279 1.73597774,10.4493826 1.43579657,10.5649049 C1.13561539,10.6804271 0.00108795391,10.2482036 0.00108795391,9.14137282 Z" id="Path-2" fill="#2681B7"></path>
                <ellipse id="Oval" fill="#2681B7" cx="5.14285714" cy="6.84429066" rx="1" ry="1"></ellipse>
                <ellipse id="Oval-2" fill="#2681B7" transform="translate(3.614762, 6.248871) rotate(-14.000000) translate(-3.614762, -6.248871) " cx="3.61476183" cy="6.24887094" rx="1" ry="1"></ellipse>
                <ellipse id="Oval-2-Copy" fill="#2681B7" transform="translate(9.667454, 1.281431) rotate(64.000000) translate(-9.667454, -1.281431) " cx="9.66745432" cy="1.28143113" rx="1" ry="1"></ellipse>
                <ellipse id="Oval-3" fill="#2681B7" cx="11.4545455" cy="2.38754325" rx="1" ry="1"></ellipse>
                <ellipse id="Oval-4" fill="#2681B7" cx="10.7922078" cy="3.70069204" rx="1" ry="1"></ellipse>
                <path d="M16.2947388,0.0476435523 C16.9098522,0.0476435523 17.4330712,0.693556578 17.3442522,1.19988467 C17.2554332,1.70621277 17.0024513,1.84968715 16.8244333,2.28270598 C16.7343512,2.50182558 16.7327354,2.84179101 16.5709951,3.14630123 C16.4092548,3.45081145 15.8792597,3.73530492 15.5887735,3.74888011 C15.2982874,3.7624553 15.1120489,3.53417911 15.1120489,3.39794805 C15.1120489,3.26171699 15.3104843,3.07459227 15.3104843,2.75549537 C15.3104843,2.43639847 14.9901312,2.13902188 14.9901312,1.33483807 C14.9901312,0.530654258 15.6796254,0.0476435523 16.2947388,0.0476435523 Z" id="Path-3" fill="#2681B7"></path>
                <path d="M23.2259908,8.35607583 C23.6701271,8.301848 23.936205,8.05517965 23.936205,7.76948218 C23.936205,7.4837847 23.5607758,7.40046532 23.2164944,7.40046532 C22.872213,7.40046532 22.5157766,7.62236994 22.5157766,7.90806741 C22.5157766,8.19376489 22.7818545,8.41030367 23.2259908,8.35607583 Z" id="Oval-5" fill="#2681B7" transform="translate(23.225991, 7.882451) rotate(-7.000000) translate(-23.225991, -7.882451) "></path>
                <ellipse id="Oval-6" fill="#2681B7" cx="22.1298701" cy="9.2716263" rx="1" ry="1"></ellipse>
                <path d="M21.4671956,12.0852733 C22.1428248,12.0852733 22.6544202,12.680825 22.6544202,13.1815633 C22.6544202,13.6823016 21.8977906,13.8900819 21.5941171,13.8900819 C21.2904437,13.8900819 20.4938341,13.6405472 20.5264125,12.9149572 C20.5589908,12.1893672 21.1974026,12.0852733 21.4671956,12.0852733 Z" id="Path-4" fill="#2681B7"></path>
                <path d="M20.0559427,17.9663133 C20.2699111,17.6889002 20.7697265,17.874694 20.9816099,18.0537801 C21.1934933,18.2328662 21.3501776,18.5735237 21.1382942,18.8591883 C20.9264108,19.144853 20.5301133,18.9864757 20.2699111,18.7468603 C20.0097089,18.5072448 19.893149,18.1773776 20.0559427,17.9663133 Z" id="Path-5" fill="#2681B7"></path>
                <path d="M17.8028105,19.945442 C17.8732244,19.8733701 17.967152,19.8154691 18.0188971,19.945442 C18.0706422,20.075415 18.279094,20.4504375 18.311739,20.5454366 C18.3443841,20.6404358 18.415683,20.723777 18.2615158,20.7675072 C18.1073487,20.8112373 17.8661627,20.8970341 17.6540686,20.5720685 C17.4250457,20.2211649 17.7323965,20.0175139 17.8028105,19.945442 Z" id="Path-6" fill="#2681B7"></path>
                <path d="M15.5078125,21.2680985 C15.7482752,21.2680985 16.1241629,21.6479137 16.0985694,22.0226513 C16.0729759,22.3973888 15.9794034,22.633138 15.6194957,22.633138 C15.2595881,22.633138 15.0823356,22.2275717 15.0823356,21.9103207 C15.0823356,21.5930697 15.2673498,21.2680985 15.5078125,21.2680985 Z" id="Path-7" fill="#2681B7"></path>
                <path d="M11.3340858,20.5179757 C11.7842177,20.5179757 12.3268821,20.8908221 12.3268821,21.534236 C12.3268821,22.1776499 11.7326755,22.8790425 11.1852171,22.8790425 C10.6377587,22.8790425 10.2161627,22.4367926 10.2161627,21.7657365 C10.2161627,21.0946804 10.8839539,20.5179757 11.3340858,20.5179757 Z" id="Path-8"></path>
                <path d="M4.57700893,21.7662287 C4.82392826,21.7688876 4.99789468,22.0218482 4.99789468,22.2246961 C4.99789468,22.427544 4.92398032,22.4356528 4.92398032,22.5074397 C4.92398032,22.5792266 4.9694095,22.6928266 4.92398032,22.7573338 C4.87855114,22.821841 4.67839387,22.7211942 4.61599533,22.7573338 C4.55359679,22.7934734 4.03457285,23.0072279 3.89846287,22.7573338 C3.76235288,22.5074397 4.03568892,21.7603998 4.57700893,21.7662287 Z" id="Path-9" fill="#2681B7"></path>
                <path d="M4.30907569,17.6123283 C4.51463575,17.6123283 4.67989042,17.7187263 4.80694501,17.7610576 C4.93399959,17.8033888 5.02878957,17.9097091 5.02204241,18.0466768 C5.01894039,18.1096479 4.92531112,18.2607969 4.85765016,18.4312588 C4.77814263,18.6315664 4.71760156,18.8495452 4.63240666,18.8495452 C4.47471084,18.8495452 3.89374493,18.6851425 3.89374493,18.1007177 C3.89374493,17.883673 4.10351562,17.6123283 4.30907569,17.6123283 Z" id="Path-10" fill="#2681B7"></path>
                <path d="M1.99604302,12.1341394 C2.31152344,12.1341394 2.68724635,12.2966379 2.68724635,12.6105729 C2.68724635,12.9245079 2.30022321,13.1720575 1.96942218,13.1720575 C1.63862114,13.1720575 1.29025467,13.0108672 1.29025467,12.6259095 C1.29025467,12.419357 1.71741832,12.1341394 1.99604302,12.1341394 Z" id="Path-11" fill="#2681B7"></path>
                <path d="M11.4340757,20.5137141 C11.8933137,20.5137141 12.301073,21.0667273 12.301073,21.5737693 C12.301073,22.0732337 11.8543146,22.8831099 11.199929,22.8831099 C10.5455433,22.8831099 10.2271586,22.3279983 10.2271586,21.7918503 C10.2271586,21.2557022 10.7325487,20.5137141 11.4340757,20.5137141 Z" id="Path-12" fill="#2681B7"></path>
            </g>
            <g id="white" transform="translate(8.000000, 8.000000)" fill="#FFFFFF">
                <rect id="Rectangle" x="0" y="3" width="1" height="2.925"></rect>
                <rect id="Rectangle-Copy-4" x="1.55472637" y="1.275" width="1" height="6.30395508"></rect>
                <rect id="Rectangle-Copy-6" x="4.6641791" y="0" width="1" height="8.94594727"></rect>
                <rect id="Rectangle-Copy-5" x="7.77363184" y="1.275" width="1" height="6.30395508"></rect>
                <rect id="Rectangle-Copy" x="3.10945274" y="3" width="1" height="2.925"></rect>
                <rect id="Rectangle-Copy-2" x="6.21890547" y="3" width="1" height="2.925"></rect>
                <rect id="Rectangle-Copy-3" x="9.32835821" y="3" width="1" height="2.925"></rect>
            </g>
        </g>
        <rect id="Rectangle-2" x="0.5" y="0" width="24" height="24"></rect>
    </g>
</svg>
