<svg width="25px" height="19px" viewBox="0 0 25 19" version="1.1" xmlns="http://www.w3.org/2000/svg">
  <!-- Generator: Sketch 49.3 (51167) - http://www.bohemiancoding.com/sketch -->
  <desc>Created with Sketch.</desc>
  <defs></defs>
  <g id="Test-Copy" stroke="none" stroke-width="1" >
    <rect id="Rectangle" fill="#FFFFFF" x="0" y="6.87412109" width="1" height="6"></rect>
    <rect id="Rectangle" fill="#FFFFFF" x="23.0503906" y="6.87412109" width="1" height="6"></rect>
    <rect id="Rectangle" fill="#FFFFFF" opacity="0.199999988" x="0.960432943" y="6.0804437" width="1"
          height="7.58735479"></rect>
    <rect id="Rectangle" fill="#FFFFFF" opacity="0.199999988" x="6.7230306" y="6.0804437" width="1"
          height="7.58735479"></rect>
    <rect id="Rectangle" fill="#FFFFFF" opacity="0.199999988" x="22.0899577" y="6.0804437" width="1"
          height="7.58735479"></rect>
    <rect id="Rectangle" fill="#FFFFFF" opacity="0.199999988" x="20.1690918" y="6.0804437" width="1"
          height="7.58735479"></rect>
    <rect id="Rectangle" fill="#FFFFFF" opacity="0.199999988" x="18.2482259" y="6.0804437" width="1"
          height="7.58735479"></rect>
    <rect id="Rectangle" fill="#FFFFFF" opacity="0.199999988" x="8.64389648" y="6.0804437" width="1"
          height="7.58735479"></rect>
    <rect id="Rectangle" fill="#FFFFFF" x="1.92086589" y="5.37412109" width="1" height="9"></rect>
    <rect id="Rectangle" fill="#FFFFFF" opacity="0.199999988" x="2.88129883" y="4.45453267" width="1"
          height="10.8391769"></rect>
    <rect id="Rectangle" fill="#FFFFFF" opacity="0.199999988" x="4.80216471" y="4.45453267" width="1"
          height="10.8391769"></rect>
    <rect id="Rectangle" fill="#FFFFFF" x="5.76259766" y="5.37412109" width="1" height="9"></rect>
    <rect id="Rectangle" fill="#FFFFFF" x="9.60432943" y="5.37412109" width="1" height="9"></rect>
    <rect id="Rectangle" fill="#FFFFFF" opacity="0.199999988" x="10.5647624" y="4.35091938" width="1"
          height="11.0464034"></rect>
    <rect id="Rectangle" fill="#FFFFFF" opacity="0.199999988" x="16.32736" y="4.35091938" width="1"
          height="11.0464034"></rect>
    <rect id="Rectangle" fill="#FFFFFF" opacity="0.199999988" x="12.4856283" y="2.24381072" width="1"
          height="15.2606208"></rect>
    <rect id="Rectangle" fill="#FFFFFF" opacity="0.199999988" x="14.4064941" y="2.24381072" width="1"
          height="15.2606208"></rect>
    <rect id="Rectangle" fill="#FFFFFF" x="17.287793" y="5.37412109" width="1" height="9"></rect>
    <rect id="Rectangle" fill="#FFFFFF" x="21.1295247" y="5.37412109" width="1" height="9"></rect>
    <rect id="Rectangle" fill="#FFFFFF" x="11.5251953" y="2.87412109" width="1" height="14"></rect>
    <rect id="Rectangle" fill="#FFFFFF" x="15.3669271" y="2.87412109" width="1" height="14"></rect>
    <rect id="Rectangle-Copy-4" fill="#FFFFFF" x="3.84173177" y="3.87412109" width="1" height="12"></rect>
    <rect id="Rectangle-Copy-6" fill="#FFFFFF" x="13.4460612" y="0.874121094" width="1" height="18"></rect>
    <rect id="Rectangle-Copy" fill="#FFFFFF" x="7.68346354" y="6.87412109" width="1" height="6"></rect>
    <rect id="Rectangle-Copy-2" fill="#FFFFFF" x="19.2086589" y="6.87412109" width="1" height="6"></rect>
  </g>
</svg>
